# Blender 3.4.1
# www.blender.org
mtllib usb3_head_place.mtl
o usb2_place
v 0.008640 0.003600 0.048000
v 0.008640 0.003600 0.000000
v 0.008640 -0.002880 -0.000000
v 0.008640 -0.002880 0.048000
v -0.008640 0.003600 0.048000
v -0.008640 0.003600 0.000000
v -0.008640 -0.002880 0.048000
v -0.008640 -0.002880 -0.000000
v -0.021600 0.021600 0.000000
v 0.021600 0.021600 0.000000
v 0.021600 -0.021600 -0.000000
v -0.021600 -0.021600 -0.000000
v 0.021600 0.021600 0.048000
v -0.021600 0.021600 0.048000
v -0.021600 -0.021600 0.048000
v 0.021600 -0.021600 0.048000
vn -1.0000 -0.0000 -0.0000
vn -0.0000 -1.0000 -0.0000
vn 1.0000 -0.0000 -0.0000
vn -0.0000 1.0000 -0.0000
vn -0.0000 -0.0000 -1.0000
vn -0.0000 -0.0000 1.0000
vt 0.016000 0.002250
vt -0.016000 0.006000
vt 0.006000 0.002500
vt -0.004000 0.002250
vt 0.004000 0.006000
vt 0.006000 0.002500
vt -0.004000 -0.002250
vt 0.004000 0.006000
vt 0.006000 -0.002000
vt 0.016000 -0.002250
vt -0.016000 0.006000
vt 0.006000 -0.002000
vt -0.016000 -0.006000
vt 0.016000 0.002250
vt -0.006000 0.002500
vt 0.004000 -0.006000
vt -0.004000 0.002250
vt -0.006000 0.002500
vt 0.016000 -0.002250
vt -0.016000 -0.006000
vt -0.006000 -0.002000
vt -0.004000 -0.002250
vt 0.004000 -0.006000
vt -0.006000 -0.002000
vt -0.015000 0.015000
vt 0.004000 0.015000
vt 0.004000 -0.015000
vt 0.015000 0.015000
vt 0.004000 0.015000
vt 0.015000 -0.015000
vt 0.004000 0.015000
vt 0.004000 -0.015000
vt -0.015000 -0.015000
vt 0.004000 -0.015000
vt 0.015000 0.015000
vt -0.016000 0.015000
vt -0.015000 0.015000
vt -0.016000 0.015000
vt -0.016000 -0.015000
vt -0.015000 -0.015000
vt -0.016000 -0.015000
vt 0.015000 -0.015000
vt -0.016000 0.015000
vt -0.016000 -0.015000
s 0
f 1/1/1 2/4/1 3/7/1
f 3/7/1 4/10/1 1/1/1
f 5/13/2 6/16/2 2/5/2
f 2/5/2 1/2/2 5/13/2
f 7/19/3 8/22/3 6/17/3
f 6/17/3 5/14/3 7/19/3
f 4/11/4 3/8/4 8/23/4
f 8/23/4 7/20/4 4/11/4
f 9/25/5 10/28/5 2/6/5
f 10/28/5 11/30/5 3/9/5
f 11/30/5 12/33/5 8/24/5
f 9/25/5 6/18/5 8/24/5
f 3/9/5 2/6/5 10/28/5
f 8/24/5 12/33/5 9/25/5
f 8/24/5 3/9/5 11/30/5
f 2/6/5 6/18/5 9/25/5
f 13/35/6 14/37/6 5/15/6
f 14/37/6 15/40/6 7/21/6
f 15/40/6 16/42/6 4/12/6
f 13/35/6 1/3/6 4/12/6
f 7/21/6 5/15/6 14/37/6
f 4/12/6 16/42/6 13/35/6
f 4/12/6 7/21/6 15/40/6
f 5/15/6 1/3/6 13/35/6
f 15/41/2 12/34/2 11/31/2
f 11/31/2 16/43/2 15/41/2
f 14/38/1 9/26/1 12/34/1
f 12/34/1 15/41/1 14/38/1
f 13/36/4 10/29/4 9/27/4
f 9/27/4 14/39/4 13/36/4
f 16/44/3 11/32/3 10/29/3
f 10/29/3 13/36/3 16/44/3
